<mxfile host="app.diagrams.net" modified="2023-06-11T02:33:06.465Z" agent="Mozilla/5.0 (Windows NT 10.0; Win64; x64) AppleWebKit/537.36 (KHTML, like Gecko) Chrome/114.0.0.0 Safari/537.36 Edg/114.0.1823.43" etag="80d_jSyFlwNdCHIQ2K1S" version="21.3.8" type="github">
  <diagram name="第 1 页" id="LNhINP6tLNm0-0mvae_5">
    <mxGraphModel dx="1058" dy="786" grid="1" gridSize="10" guides="1" tooltips="1" connect="1" arrows="1" fold="1" page="1" pageScale="1" pageWidth="827" pageHeight="1169" math="0" shadow="0">
      <root>
        <mxCell id="0" />
        <mxCell id="1" parent="0" />
        <mxCell id="ZaurmbnT24eYTloObbMi-3" value="&lt;div style=&quot;line-height: 1.3; font-family: &amp;quot;Source Han Sans CN&amp;quot;; vertical-align: middle; color: rgb(25, 25, 26); font-size: 14px; font-weight: normal;&quot;&gt;&lt;p&gt;准则评分对消费者文本评论行为的影响差异性&lt;/p&gt;&lt;/div&gt;" style="swimlane;whiteSpace=wrap;html=1;gradientColor=#CCCCCC;" vertex="1" parent="1">
          <mxGeometry x="200" y="130" width="350" height="140" as="geometry" />
        </mxCell>
        <mxCell id="ZaurmbnT24eYTloObbMi-4" value="&lt;div style=&quot;line-height: 1.3; font-family: &amp;quot;Source Han Sans CN&amp;quot;; vertical-align: middle; color: rgb(25, 25, 26); font-size: 14px; font-weight: normal;&quot;&gt;&lt;div style=&quot;line-height: 1.3; vertical-align: middle;&quot;&gt;&lt;p&gt;准则集动态调整对消费者文本评论的影响研究&lt;/p&gt;&lt;/div&gt;&lt;/div&gt;" style="swimlane;whiteSpace=wrap;html=1;gradientColor=#CCCCCC;" vertex="1" parent="1">
          <mxGeometry x="200" y="310" width="350" height="140" as="geometry" />
        </mxCell>
      </root>
    </mxGraphModel>
  </diagram>
</mxfile>
